<svg preserveAspectRatio="none" width="100%" height="100%" overflow="visible" style="display: block;" viewBox="0 0 40 40" fill="none" xmlns="http://www.w3.org/2000/svg">
<g id="linkedin">
<path id="Vector" d="M36.1916 1.0052C30.3472 0.9888 8.7908 1.0164 3.8084 1.0052C2.258 1.0052 1 2.2248 1 3.7268V36.2792C1 37.7816 2.258 39 3.8084 39H36.1916C37.7428 39 39 37.7816 39 36.2788V3.7268C39 2.2248 37.7428 1.0052 36.1916 1.0052Z" fill="var(--fill-0, white)"/>
<path id="Vector_2" d="M21.3812 32.802C21.3812 32.802 21.3812 23.2508 21.3812 23.2504C21.3256 21.4952 22.3748 19.8572 24.486 19.7836C26.5432 19.7836 27.3664 21.352 27.3664 23.6516V32.8016H33.052V22.994C33.052 17.74 30.2472 15.2952 26.506 15.2952C23.4388 15.2952 22.0916 17.0092 21.3432 18.1768L21.3812 15.6968H15.6956C15.7696 17.3016 15.6952 32.802 15.6952 32.802H21.3812ZM12.548 25.3844V15.6964H6.8616V32.8016H12.5484C12.5472 31.0056 12.5504 27.1552 12.548 25.3844ZM9.706 13.3616C11.6884 13.3616 12.9228 12.048 12.9228 10.4068C12.9064 6.448 6.5212 6.492 6.5264 10.4064C6.522 12.0604 7.7904 13.382 9.706 13.3616Z" fill="var(--fill-0, #292929)"/>
</g>
</svg>
